<?xml version="1.0" standalone="no"?>
<!DOCTYPE svg PUBLIC "-//W3C//DTD SVG 20010904//EN"
 "http://www.w3.org/TR/2001/REC-SVG-20010904/DTD/svg10.dtd">
<svg version="1.0" xmlns="http://www.w3.org/2000/svg"
 width="522.000000pt" height="522.000000pt" viewBox="0 0 522.000000 522.000000"
 preserveAspectRatio="xMidYMid meet">
<metadata>
Created by potrace 1.14, written by Peter Selinger 2001-2017
</metadata>
<g transform="translate(0.000000,522.000000) scale(0.100000,-0.100000)"
fill="#000000" stroke="none">
<path d="M1420 5207 c0 -5 -11 -7 -25 -5 -14 3 -25 2 -25 -1 0 -4 -30 -8 -67
-9 -80 -3 -94 -5 -110 -15 -6 -4 -15 -3 -18 3 -5 8 -11 7 -21 -1 -8 -6 -14 -7
-14 -2 0 9 -34 9 -76 -1 -24 -5 -104 -9 -119 -6 -5 1 -14 1 -20 0 -25 -5 -64
-10 -114 -14 -31 -2 -57 -9 -62 -17 -7 -12 -9 -11 -9 1 -1 12 -3 11 -11 -2 -5
-10 -10 -21 -11 -25 -1 -5 -7 -14 -14 -21 -7 -7 -10 -20 -7 -29 4 -11 3 -14
-5 -9 -11 7 -13 3 -16 -36 -1 -7 -8 -19 -16 -26 -13 -12 -13 -13 0 -6 8 4 5
-3 -7 -15 -21 -20 -27 -34 -24 -54 1 -5 -3 -6 -9 -2 -10 6 -14 -7 -11 -32 1
-7 -3 -13 -10 -13 -6 0 -9 -6 -6 -14 3 -8 3 -17 -1 -20 -6 -7 -12 -30 -14 -53
-1 -7 -5 -13 -9 -13 -4 0 -5 -9 -2 -20 3 -11 1 -20 -4 -20 -5 0 -10 -6 -10
-12 0 -7 -3 -25 -6 -40 -3 -15 -1 -30 4 -34 6 -4 7 -10 0 -17 -16 -20 -16 -23
-2 -40 10 -13 10 -17 1 -17 -7 0 -10 -7 -6 -15 3 -8 1 -15 -3 -15 -5 0 -8 -8
-6 -17 1 -10 -2 -23 -7 -30 -6 -7 -5 -14 3 -18 8 -6 8 -10 -2 -15 -10 -7 -10
-12 2 -26 9 -11 9 -15 2 -10 -7 4 -13 2 -13 -3 0 -6 4 -11 10 -11 5 0 7 -7 4
-15 -3 -8 -2 -20 2 -27 5 -7 10 -22 11 -33 2 -10 7 -22 11 -25 4 -3 8 -12 10
-20 2 -8 8 -17 13 -18 5 -2 6 -9 2 -15 -4 -7 -9 -21 -10 -32 -2 -11 -8 -21
-13 -23 -5 -2 -6 -10 -3 -18 3 -8 0 -14 -6 -14 -6 0 -11 -5 -11 -11 0 -5 6 -7
13 -3 8 5 8 2 -2 -9 -7 -9 -10 -17 -5 -17 4 0 0 -6 -11 -13 -13 -10 -15 -16
-6 -21 9 -6 9 -11 1 -21 -7 -8 -9 -19 -5 -25 3 -5 1 -10 -5 -10 -6 0 -9 -14
-7 -35 3 -19 0 -35 -5 -35 -6 0 -7 -7 -4 -16 3 -9 2 -12 -4 -9 -6 4 -10 -5 -9
-22 0 -28 -3 -46 -14 -73 -4 -8 -6 -36 -4 -63 1 -26 -1 -47 -5 -47 -4 0 -6
-12 -4 -27 1 -16 -2 -34 -7 -40 -5 -7 -6 -13 -2 -13 4 0 2 -7 -5 -15 -16 -19
-49 -19 -56 0 -4 8 -10 12 -15 9 -5 -3 -9 -1 -9 4 0 4 -23 15 -50 22 -28 7
-50 17 -50 22 0 12 -48 10 -55 -2 -3 -6 -16 -8 -29 -6 -14 3 -23 -1 -23 -10 0
-7 5 -11 11 -8 6 3 2 -2 -8 -10 -13 -10 -15 -16 -7 -16 10 0 11 -3 2 -13 -6
-8 -8 -17 -4 -20 3 -4 1 -7 -6 -7 -7 0 -9 -4 -6 -10 3 -5 1 -10 -4 -10 -6 0
-11 -9 -11 -20 0 -11 -5 -20 -11 -20 -5 0 -7 -4 -4 -10 3 -5 1 -10 -6 -10 -8
0 -7 -5 2 -17 10 -12 10 -14 1 -9 -7 4 -15 1 -19 -10 -4 -10 0 -20 11 -26 17
-9 17 -11 0 -29 -9 -10 -13 -19 -8 -19 5 0 2 -4 -6 -10 -9 -5 -19 -5 -27 2
-10 8 -13 5 -13 -11 0 -11 5 -21 11 -21 5 0 7 -5 4 -11 -4 -5 1 -20 12 -31 12
-15 13 -19 3 -13 -12 6 -13 5 -3 -6 7 -7 13 -21 13 -31 0 -10 5 -18 10 -18 6
0 10 -5 10 -11 0 -5 -6 -7 -12 -3 -10 5 -10 4 -1 -6 9 -10 9 -19 -3 -41 -8
-16 -18 -29 -23 -29 -19 0 -6 -29 16 -35 13 -3 21 -10 18 -15 -3 -5 3 -13 12
-19 14 -7 15 -13 6 -21 -7 -8 -8 -22 -3 -40 6 -20 4 -30 -3 -34 -8 -3 -8 -5 1
-5 7 -1 10 -6 6 -13 -4 -6 -8 -29 -10 -51 -2 -22 -7 -44 -12 -49 -10 -10 7
-58 21 -58 4 0 7 -7 7 -15 0 -8 5 -15 10 -15 6 0 10 -7 10 -15 0 -8 5 -15 10
-15 6 0 10 -7 10 -16 0 -9 5 -12 13 -8 7 5 6 0 -3 -11 -8 -10 -10 -16 -4 -12
11 6 29 -19 26 -35 -1 -5 4 -8 10 -8 7 0 14 -12 15 -26 0 -15 7 -30 15 -35 10
-7 10 -9 -2 -9 -12 0 -12 -2 -2 -9 7 -4 15 -14 16 -22 8 -38 57 -119 72 -119
7 0 15 -7 18 -16 4 -9 9 -14 13 -10 3 3 15 -1 25 -11 10 -9 21 -14 24 -10 7 7
50 -35 46 -45 -1 -5 2 -8 8 -8 5 0 10 -9 10 -20 0 -11 5 -20 10 -20 6 0 9 -3
9 -7 -1 -5 -1 -15 0 -23 1 -13 2 -13 11 0 8 13 10 13 10 -1 0 -17 57 -66 72
-61 4 1 8 -7 8 -19 0 -15 4 -19 16 -15 12 4 15 2 10 -9 -3 -8 -1 -15 4 -15 6
0 12 0 15 0 12 0 41 -36 36 -45 -2 -5 3 -4 12 4 15 12 17 12 11 -4 -6 -14 -4
-16 12 -8 10 6 25 8 32 6 7 -3 20 -2 30 3 27 12 52 17 72 15 13 -1 13 -2 0
-11 -12 -7 -12 -10 -1 -10 7 0 11 -6 8 -15 -4 -8 -3 -17 2 -19 4 -3 7 -23 6
-46 -1 -22 1 -40 5 -40 5 0 9 -22 11 -72 0 -10 6 -18 12 -18 7 0 6 -4 -3 -10
-12 -7 -12 -10 -1 -10 7 0 11 -6 8 -15 -4 -8 -2 -17 3 -20 6 -4 10 -13 10 -21
0 -9 -5 -12 -11 -8 -6 3 -3 -5 6 -20 9 -14 15 -33 11 -41 -4 -11 -2 -14 6 -9
8 5 9 2 5 -10 -4 -10 -3 -15 3 -11 6 3 10 -3 10 -14 0 -11 5 -23 11 -26 6 -4
8 -13 5 -20 -2 -7 6 -28 19 -45 14 -18 22 -37 19 -41 -2 -4 5 -13 16 -19 11
-6 17 -16 14 -22 -5 -7 -2 -8 5 -4 8 5 14 0 18 -13 3 -12 9 -21 14 -21 5 0 5
-7 2 -17 -5 -11 -3 -14 6 -8 10 6 11 3 2 -14 -8 -15 -8 -21 -1 -21 6 0 10 -6
8 -13 -3 -17 12 -57 22 -57 4 0 7 -12 5 -26 -1 -15 3 -28 11 -31 8 -3 21 -20
30 -39 9 -19 21 -31 27 -27 5 3 7 1 3 -5 -3 -6 0 -17 8 -25 8 -8 12 -17 9 -21
-4 -3 0 -6 8 -6 8 0 23 -12 33 -27 11 -14 14 -23 8 -19 -7 4 -12 2 -12 -3 0
-6 7 -11 16 -11 8 0 12 -5 9 -10 -4 -6 -2 -16 3 -23 6 -7 11 -15 12 -19 5 -28
24 -68 32 -68 5 0 7 -4 3 -9 -3 -5 0 -13 6 -17 6 -3 17 -22 25 -40 8 -19 20
-34 27 -34 8 0 7 -4 -3 -10 -13 -8 -12 -10 2 -10 10 0 17 -3 17 -7 -3 -17 1
-36 7 -31 7 8 80 -63 76 -74 -1 -5 2 -7 8 -3 5 3 10 1 10 -5 0 -6 5 -8 10 -5
6 3 10 -1 10 -9 0 -10 6 -13 17 -9 11 4 14 3 9 -5 -4 -7 -1 -12 9 -12 11 0 15
-5 11 -16 -3 -8 -2 -12 4 -9 6 3 10 1 10 -5 0 -12 -19 -34 -35 -41 -5 -2 -9
-8 -7 -12 1 -5 -2 -6 -7 -3 -5 4 -12 2 -16 -4 -4 -6 -11 -7 -17 -4 -6 4 -8 2
-5 -3 4 -6 0 -16 -8 -23 -8 -7 -12 -17 -8 -23 4 -6 0 -8 -11 -4 -9 4 -15 3
-12 -2 3 -4 -4 -17 -14 -29 -11 -12 -20 -27 -20 -33 0 -7 -3 -9 -7 -6 -9 10
-34 -14 -26 -26 3 -6 1 -7 -6 -3 -14 9 -43 -12 -35 -25 3 -5 -3 -6 -13 -2 -10
3 -15 2 -11 -2 5 -5 -1 -14 -12 -22 -11 -8 -20 -22 -20 -31 0 -15 -2 -15 -10
-2 -8 13 -10 12 -10 -2 0 -10 -5 -18 -11 -18 -5 0 -8 -4 -4 -9 3 -5 -1 -16 -9
-24 -8 -8 -13 -16 -11 -19 2 -2 -9 -19 -25 -38 -17 -19 -30 -41 -30 -47 0 -7
-5 -13 -11 -13 -5 0 -8 -4 -5 -9 3 -5 -1 -11 -9 -15 -8 -3 -15 -11 -15 -18 0
-7 -9 -19 -21 -26 -11 -7 -18 -18 -16 -25 2 -7 -5 -20 -16 -30 -11 -9 -16 -17
-11 -17 5 0 -2 -10 -16 -21 -14 -11 -18 -18 -10 -14 17 7 9 0 -49 -46 l-32
-26 2129 0 2128 0 1 313 c0 258 -2 311 -14 307 -7 -3 -13 1 -13 8 0 11 -3 11
-10 -1 -7 -11 -10 -11 -10 -2 0 7 -4 10 -10 7 -5 -3 -10 -1 -10 4 0 6 -7 11
-16 11 -8 0 -12 5 -9 10 3 6 0 10 -8 10 -8 0 -22 9 -32 20 -10 11 -24 20 -32
20 -8 0 -11 5 -7 12 4 7 3 8 -5 4 -25 -16 -111 57 -111 95 0 11 -4 17 -10 14
-5 -3 -10 1 -10 9 0 9 -4 16 -8 16 -5 0 -15 11 -22 25 -7 14 -20 25 -27 25 -8
0 -11 5 -8 10 4 6 -7 15 -24 21 -17 6 -31 15 -31 20 0 5 -9 9 -21 9 -11 0 -18
4 -15 9 3 5 -5 12 -19 15 -14 4 -25 13 -25 21 0 8 -7 15 -15 15 -9 0 -18 7
-21 15 -6 15 -42 31 -59 26 -5 -1 -7 0 -3 4 8 8 -24 43 -34 38 -5 -2 -8 1 -8
6 0 6 -7 11 -15 11 -8 0 -15 5 -15 10 0 6 -7 10 -15 10 -8 0 -15 5 -15 12 0 6
-3 8 -7 5 -3 -4 -12 1 -20 11 -8 9 -11 10 -7 3 5 -9 -5 -6 -23 7 -17 12 -38
22 -45 22 -8 0 -18 3 -22 7 -3 4 -17 8 -29 10 -12 2 -24 8 -25 13 -2 6 -8 8
-13 4 -5 -3 -21 2 -36 10 -16 8 -37 18 -48 22 -28 10 -95 12 -89 2 3 -4 -1 -8
-8 -7 -16 1 -56 17 -44 18 5 1 4 7 -1 14 -6 6 -10 47 -9 89 1 45 -2 74 -8 71
-5 -4 -6 0 -1 8 13 19 12 292 0 301 -6 5 -5 8 2 8 7 0 10 7 6 17 -4 10 -2 14
4 10 5 -3 9 3 8 16 -1 12 3 25 8 29 11 7 18 29 21 66 1 20 8 26 28 23 3 0 5
11 3 25 -1 17 1 22 8 15 6 -6 15 -4 26 9 14 17 31 20 114 21 53 1 97 5 97 10
0 5 9 9 20 9 11 0 23 7 26 15 4 8 10 12 15 9 5 -3 9 0 9 5 0 6 7 11 15 11 8 0
15 4 15 10 0 5 3 9 8 8 10 -4 53 28 46 34 -3 3 3 5 13 4 11 0 18 5 17 16 -1
10 2 16 6 13 5 -3 19 4 32 15 12 12 38 30 56 41 21 12 32 25 29 34 -3 7 2 16
11 20 14 5 14 7 2 15 -13 8 -12 10 3 10 9 0 17 7 17 16 0 8 5 12 10 9 6 -3 10
-1 10 4 0 6 7 11 16 11 8 0 13 4 10 9 -5 8 29 24 46 22 4 0 4 7 1 16 -5 12 -3
14 8 8 8 -5 3 5 -11 21 -14 15 -17 22 -7 15 15 -12 17 -12 11 5 -4 10 -11 24
-15 29 -4 6 -6 20 -5 30 2 11 1 24 -2 30 -4 5 -5 24 -3 41 1 18 -3 35 -9 39
-9 6 -9 10 1 17 11 7 11 11 2 15 -9 3 -10 10 -3 23 6 11 9 23 9 27 -4 16 13
43 23 37 6 -4 8 -1 6 7 -3 8 1 26 9 42 7 15 10 27 6 27 -5 0 1 7 11 15 11 8
16 15 12 15 -5 0 -2 8 5 17 9 11 10 14 2 9 -9 -5 -11 -2 -7 8 3 9 10 16 15 16
4 0 6 7 3 15 -4 8 -2 15 4 15 5 0 12 9 15 21 3 12 10 18 17 14 6 -4 9 -1 8 7
-2 7 3 12 10 10 8 -1 11 2 8 7 -4 5 -1 11 6 13 10 4 17 23 20 55 1 7 5 10 9 8
9 -6 21 24 13 36 -3 5 0 8 7 7 16 -4 23 27 13 50 -11 26 -13 42 -5 42 4 0 8
11 9 25 1 13 15 37 30 52 35 34 55 70 47 83 -3 6 0 10 8 10 7 0 14 6 14 13 0
7 20 40 44 72 l44 58 1 174 c1 101 -2 173 -8 173 -5 0 -7 4 -4 8 2 4 -4 14
-16 21 -13 8 -18 9 -13 1 4 -6 -9 -1 -29 12 -20 13 -36 31 -36 41 0 11 -4 15
-12 11 -8 -5 -9 -2 -5 9 3 10 2 17 -4 17 -6 0 -8 4 -4 9 3 5 0 13 -6 16 -5 4
-8 13 -5 21 3 9 -1 14 -12 14 -15 0 -15 2 -2 10 8 5 10 10 5 10 -6 0 -16 14
-23 30 -8 17 -20 30 -27 30 -7 0 -16 7 -19 16 -4 9 -9 14 -12 11 -4 -3 -18 5
-32 18 -14 13 -29 22 -34 19 -4 -3 -8 0 -8 7 0 6 -8 9 -20 6 -11 -3 -22 -2
-25 3 -8 12 -101 6 -118 -9 -10 -7 -17 -10 -17 -5 0 5 -4 3 -8 -4 -10 -15 -52
-25 -52 -11 0 5 -10 9 -22 9 -12 0 -19 3 -15 6 3 3 -10 20 -28 37 -55 51 -63
57 -79 57 -8 0 -21 9 -29 20 -8 11 -17 17 -22 12 -4 -4 -5 1 -2 11 5 12 1 17
-13 17 -11 0 -20 5 -20 10 0 6 -12 10 -27 11 -16 0 -22 3 -15 6 10 4 9 8 -5
19 -10 7 -13 14 -6 14 13 0 5 40 -9 40 -5 0 -4 8 2 19 6 12 6 21 0 23 -5 2
-10 20 -12 41 -1 21 -6 41 -11 44 -4 2 -3 11 4 19 8 10 8 14 0 14 -6 0 -11 9
-11 20 0 11 -5 20 -11 20 -5 0 -8 4 -4 9 3 5 0 13 -6 16 -5 4 -8 13 -5 21 3 8
2 14 -2 14 -12 0 -31 50 -25 66 3 8 0 14 -7 14 -7 0 -10 7 -6 15 3 8 1 15 -5
15 -6 0 -8 4 -4 9 3 5 -2 16 -10 24 -8 9 -15 20 -15 26 0 6 -5 11 -11 11 -5 0
-7 5 -4 10 3 6 2 10 -4 10 -6 0 -13 11 -17 25 -3 14 -11 25 -16 25 -6 0 -7 7
-4 16 3 8 2 12 -4 9 -6 -3 -10 -2 -10 3 0 5 -15 25 -34 44 -19 20 -32 38 -29
41 5 5 -3 16 -35 52 -7 8 -14 24 -15 34 0 11 -4 18 -7 16 -8 -5 -30 22 -23 29
3 3 -2 8 -11 12 -9 3 -16 12 -16 20 0 8 -6 15 -12 16 -56 7 -2558 3 -2558 -5z
m-1296 -1793 c3 -8 2 -12 -4 -9 -6 3 -10 10 -10 16 0 14 7 11 14 -7z m4251
-1235 c-4 -5 -2 -9 3 -9 5 0 9 -7 9 -15 0 -8 -4 -12 -9 -9 -4 3 -8 0 -8 -5 0
-6 4 -11 9 -11 15 0 6 -28 -17 -57 -16 -20 -25 -24 -30 -16 -4 7 -19 14 -32
16 -17 3 -25 11 -26 26 -2 30 -9 34 -25 14 -13 -15 -12 -16 6 -9 15 5 17 4 8
-5 -23 -24 -34 2 -13 32 12 16 18 34 14 40 -4 8 -3 9 4 5 7 -4 12 -2 12 4 0 6
5 8 10 5 6 -3 10 -2 10 4 0 6 6 8 14 5 8 -3 17 -1 21 5 4 8 12 8 26 1 11 -6
17 -15 14 -21z"/>
<path d="M4335 2189 c-4 -6 -5 -12 -2 -15 2 -3 7 2 10 11 7 17 1 20 -8 4z"/>
<path d="M4357 2183 c-10 -9 -9 -23 1 -23 5 0 9 7 9 15 0 17 -1 18 -10 8z"/>
</g>
</svg>
