<svg viewBox="0 0 200 200" xmlns="http://www.w3.org/2000/svg">
              <path fill="#252731" d="M19.9,-44.2C20.1,-30.8,10.7,-15.7,22.1,-5.7C33.5,4.3,65.7,9.2,76.4,18.7C87.1,28.3,76.3,42.5,63.6,52.6C50.9,62.7,36.4,68.7,24.7,62.1C13,55.5,4,36.3,-6,29.4C-16,22.4,-26.9,27.6,-29.5,25.2C-32.1,22.8,-26.3,12.9,-25.1,5.1C-23.9,-2.7,-27.2,-8.3,-26.7,-13.3C-26.2,-18.4,-21.9,-22.9,-16.8,-34.2C-11.8,-45.4,-5.9,-63.3,2,-66.4C9.8,-69.5,19.6,-57.7,19.9,-44.2Z" transform="translate(100 100)" />
            </svg>