 <svg viewBox="0 0 200 200" xmlns="http://www.w3.org/2000/svg">
              <path fill="#252731" d="M40.4,-71.7C46,-59.3,39.9,-37.3,47.2,-21.5C54.5,-5.7,75.3,4.1,75.1,11.3C74.9,18.6,53.7,23.4,38.8,24.7C23.8,26,15.1,23.8,7.5,26.5C-0.1,29.2,-6.6,36.8,-10.7,35.9C-14.9,35,-16.8,25.6,-25,19.7C-33.1,13.8,-47.6,11.3,-58.2,2.4C-68.9,-6.6,-75.7,-22.1,-69.9,-30.8C-64.2,-39.4,-45.9,-41.2,-32.1,-49.9C-18.4,-58.7,-9.2,-74.4,4.1,-80.8C17.4,-87.2,34.8,-84.2,40.4,-71.7Z" transform="translate(100 100)" />
            </svg>